<?xml version="1.0" encoding="UTF-8"?>
<svg width="256px" height="259px" viewBox="0 0 256 259" version="1.1" xmlns="http://www.w3.org/2000/svg">
    <g>
        <path d="M127.778579,0 C60.4203546,0 5.24030561,52.412282 0,119.013983 L68.7236558,147.68805 C74.5451924,143.665561 81.5845466,141.322185 89.1497766,141.322185 C89.8324924,141.322185 90.5059824,141.340637 91.1702465,141.377541 L121.735621,96.668877 L121.735621,96.0415165 C121.735621,69.1388208 143.425688,47.2457835 170.088511,47.2457835 C196.751333,47.2457835 218.441401,69.1388208 218.441401,96.0415165 C218.441401,122.944212 196.751333,144.846475 170.088511,144.846475 C169.719475,144.846475 169.359666,144.83725 168.99063,144.828024 L125.398299,176.205276 C125.425977,176.786507 125.444428,177.367738 125.444428,177.939743 C125.444428,198.144443 109.160732,214.575753 89.1497766,214.575753 C71.5836817,214.575753 56.8868387,201.917832 53.5655182,185.163615 L4.40997549,164.654462 C19.6326942,218.967277 69.0834655,258.786219 127.778579,258.786219 C198.596511,258.786219 256,200.847629 256,129.393109 C256,57.9293643 198.596511,0 127.778579,0 Z M80.3519677,196.332478 L64.6033732,189.763644 C67.389592,197.984887 74.2953465,203.85268 83.1384672,203.85268 C93.3488154,203.85268 101.666985,195.458182 101.666985,185.147386 C101.666985,174.836591 93.3488154,166.442093 83.1384672,166.442093 C82.5342933,166.442093 81.9394437,166.460545 81.3537685,166.497449 L99.2437525,173.829195 C107.888998,176.888498 112.434862,186.227459 109.40156,194.957706 C106.368259,203.687953 97.1479706,208.279245 88.502725,205.219942 L80.3519677,196.332478 Z M168.596785,96.0415165 C168.596785,81.1523216 156.791476,69.161645 142.097632,69.161645 C127.403788,69.161645 115.59848,81.1523216 115.59848,96.0415165 C115.59848,110.930711 127.403788,122.921388 142.097632,122.921388 C156.791476,122.921388 168.596785,110.930711 168.596785,96.0415165 Z M143.127558,96.0415165 C143.127558,88.7701034 137.236228,82.7882323 130.097632,82.7882323 C122.959037,82.7882323 117.067707,88.7701034 117.067707,96.0415165 C117.067707,103.31293 122.959037,109.294801 130.097632,109.294801 C137.236228,109.294801 143.127558,103.31293 143.127558,96.0415165 Z" fill="#FFFFFF"></path>
    </g>
</svg> 