<?xml version="1.0" encoding="UTF-8"?>
<svg width="800" height="400" viewBox="0 0 800 400" xmlns="http://www.w3.org/2000/svg">
    <!-- Background -->
    <rect width="800" height="400" fill="#1a237e"/>
    <path d="M0 300 Q 400 200 800 300 L800 400 L0 400 Z" fill="#3f51b5"/>
    
    <!-- Police Cars -->
    <g transform="translate(100, 250)">
        <!-- Car Body -->
        <path d="M0 0 L100 0 L120 -30 L200 -30 L220 0 L240 0 L240 40 L0 40 Z" fill="#ffffff"/>
        <!-- Windows -->
        <path d="M120 -30 L140 -50 L180 -50 L200 -30 Z" fill="#90caf9"/>
        <!-- Wheels -->
        <circle cx="60" cy="40" r="20" fill="#212121"/>
        <circle cx="180" cy="40" r="20" fill="#212121"/>
        <!-- Light Bar -->
        <rect x="140" y="-55" width="40" height="10" fill="#f44336"/>
        <!-- Police Text -->
        <text x="120" y="25" font-family="Arial" font-size="20" fill="#1a237e" text-anchor="middle">POLICE</text>
    </g>
    
    <g transform="translate(500, 280)">
        <!-- Car Body -->
        <path d="M0 0 L100 0 L120 -30 L200 -30 L220 0 L240 0 L240 40 L0 40 Z" fill="#ffffff"/>
        <!-- Windows -->
        <path d="M120 -30 L140 -50 L180 -50 L200 -30 Z" fill="#90caf9"/>
        <!-- Wheels -->
        <circle cx="60" cy="40" r="20" fill="#212121"/>
        <circle cx="180" cy="40" r="20" fill="#212121"/>
        <!-- Light Bar -->
        <rect x="140" y="-55" width="40" height="10" fill="#f44336"/>
        <!-- Police Text -->
        <text x="120" y="25" font-family="Arial" font-size="20" fill="#1a237e" text-anchor="middle">POLICE</text>
    </g>
    
    <!-- Buildings -->
    <g transform="translate(0, 100)">
        <!-- Building 1 -->
        <rect x="50" y="0" width="100" height="200" fill="#303f9f"/>
        <g transform="translate(60, 10)">
            <rect width="20" height="30" fill="#90caf9" y="0"/>
            <rect width="20" height="30" fill="#90caf9" y="40"/>
            <rect width="20" height="30" fill="#90caf9" y="80"/>
            <rect width="20" height="30" fill="#90caf9" y="120"/>
        </g>
        <g transform="translate(120, 10)">
            <rect width="20" height="30" fill="#90caf9" y="0"/>
            <rect width="20" height="30" fill="#90caf9" y="40"/>
            <rect width="20" height="30" fill="#90caf9" y="80"/>
            <rect width="20" height="30" fill="#90caf9" y="120"/>
        </g>
        
        <!-- Building 2 -->
        <rect x="200" y="-50" width="150" height="250" fill="#283593"/>
        <g transform="translate(220, -40)">
            <rect width="25" height="35" fill="#90caf9" y="0"/>
            <rect width="25" height="35" fill="#90caf9" y="45"/>
            <rect width="25" height="35" fill="#90caf9" y="90"/>
            <rect width="25" height="35" fill="#90caf9" y="135"/>
            <rect width="25" height="35" fill="#90caf9" y="180"/>
        </g>
        <g transform="translate(305, -40)">
            <rect width="25" height="35" fill="#90caf9" y="0"/>
            <rect width="25" height="35" fill="#90caf9" y="45"/>
            <rect width="25" height="35" fill="#90caf9" y="90"/>
            <rect width="25" height="35" fill="#90caf9" y="135"/>
            <rect width="25" height="35" fill="#90caf9" y="180"/>
        </g>
        
        <!-- Building 3 -->
        <rect x="400" y="-100" width="120" height="300" fill="#1a237e"/>
        <g transform="translate(420, -90)">
            <rect width="20" height="30" fill="#90caf9" y="0"/>
            <rect width="20" height="30" fill="#90caf9" y="40"/>
            <rect width="20" height="30" fill="#90caf9" y="80"/>
            <rect width="20" height="30" fill="#90caf9" y="120"/>
            <rect width="20" height="30" fill="#90caf9" y="160"/>
            <rect width="20" height="30" fill="#90caf9" y="200"/>
        </g>
        <g transform="translate(480, -90)">
            <rect width="20" height="30" fill="#90caf9" y="0"/>
            <rect width="20" height="30" fill="#90caf9" y="40"/>
            <rect width="20" height="30" fill="#90caf9" y="80"/>
            <rect width="20" height="30" fill="#90caf9" y="120"/>
            <rect width="20" height="30" fill="#90caf9" y="160"/>
            <rect width="20" height="30" fill="#90caf9" y="200"/>
        </g>
    </g>
    
    <!-- Stars -->
    <g>
        <circle cx="100" cy="50" r="2" fill="white"/>
        <circle cx="200" cy="30" r="2" fill="white"/>
        <circle cx="300" cy="70" r="2" fill="white"/>
        <circle cx="400" cy="40" r="2" fill="white"/>
        <circle cx="500" cy="60" r="2" fill="white"/>
        <circle cx="600" cy="30" r="2" fill="white"/>
        <circle cx="700" cy="50" r="2" fill="white"/>
    </g>
</svg> 