<?xml version="1.0" encoding="UTF-8"?>
<svg width="200" height="200" viewBox="0 0 200 200" xmlns="http://www.w3.org/2000/svg">
    <!-- Shield Background -->
    <path d="M100 20 L180 60 L180 120 C180 160 100 180 100 180 C100 180 20 160 20 120 L20 60 Z" fill="#1a237e"/>
    <path d="M100 30 L170 65 L170 115 C170 150 100 170 100 170 C100 170 30 150 30 115 L30 65 Z" fill="#3f51b5"/>
    
    <!-- SWAT Text -->
    <text x="100" y="100" font-family="Arial" font-size="36" fill="#ffd700" text-anchor="middle" font-weight="bold">SWAT</text>
    
    <!-- Crossed Rifles -->
    <g transform="translate(100 120) rotate(45)">
        <rect x="-40" y="-5" width="80" height="10" fill="#ffd700"/>
    </g>
    <g transform="translate(100 120) rotate(-45)">
        <rect x="-40" y="-5" width="80" height="10" fill="#ffd700"/>
    </g>
    
    <!-- Team Text -->
    <text x="100" y="150" font-family="Arial" font-size="14" fill="white" text-anchor="middle">TACTICAL TEAM</text>
</svg> 